<svg width="32" height="22" viewBox="0 0 40 28" fill="none" xmlns="http://www.w3.org/2000/svg">
  <path d="M16.6 5.6C17.9 4.1 19.8 3.2 21.8 3.2C24.6 3.2 27 4.8 28.2 7.2C29.1 6.8 30.1 6.6 31.2 6.6C35.5 6.6 39 10.1 39 14.4C39 18.7 35.5 22.2 31.2 22.2C30.7 22.2 30.2 22.1 29.7 22.1C28.6 24.1 26.5 25.4 24 25.4C23.1 25.4 22.2 25.2 21.4 24.9C20.3 26.8 18.2 28 15.8 28C13.3 28 11.1 26.6 10 24.6C9.5 24.7 8.9 24.8 8.4 24.8C4 24.8 0.5 21.3 0.5 16.9C0.5 13.4 2.7 10.4 5.8 9.3C5.6 8.6 5.4 7.8 5.4 7C5.4 3.1 8.5 0 12.4 0C14.4 0 16.2 0.9 17.4 2.3" fill="#00A1E0"/>
</svg>
